<svg width="369" height="369" viewBox="0 0 369 369" fill="none" xmlns="http://www.w3.org/2000/svg">
<path d="M141.678 178.492C142.712 178.492 143.513 178.793 144.082 179.396C144.651 179.999 144.935 180.904 144.935 182.11C144.935 182.886 144.813 183.576 144.572 184.179C144.348 184.782 143.995 185.255 143.513 185.6C143.048 185.927 142.462 186.091 141.756 186.091H141.213V182.369C141.213 181.456 141.221 180.56 141.238 179.682C141.246 179.28 141.254 178.883 141.262 178.492H141.678Z" fill="black"/>
<path d="M177.866 187.668H173.824L175.866 181.263L177.866 187.668Z" fill="black"/>
<path fill-rule="evenodd" clip-rule="evenodd" d="M195.076 191.925C195.079 192.047 195.081 192.17 195.083 192.292C195.084 192.357 195.086 192.421 195.087 192.485L195.083 192.292L195.076 191.925Z" fill="black"/>
<path fill-rule="evenodd" clip-rule="evenodd" d="M113 204H210V166H113V204ZM195.076 191.925L195.083 192.292L195.087 192.485L196.617 192.682V194H188.733V192.682L190.558 192.475C190.563 192.124 190.568 191.771 190.568 191.415C190.586 190.519 190.595 189.614 190.595 188.701V182.369C190.595 181.473 190.586 180.586 190.568 179.707C190.568 179.338 190.563 178.972 190.558 178.608L188.733 178.415V177.07H196.927V178.415L195.087 178.616L195.066 179.682C195.049 180.56 195.04 181.456 195.04 182.369V185.83L200.727 178.717L198.994 178.415V177.07H204.888V178.415L202.521 178.726L199.169 182.739L204.279 192.494L205.792 192.682V194H198.219V192.682L199.323 192.546L196.26 186.223L195.04 187.683V188.701C195.04 189.597 195.049 190.494 195.066 191.39C195.07 191.568 195.073 191.747 195.076 191.925ZM125.599 176.605C124.272 176.605 123.126 176.812 122.161 177.226C121.196 177.622 120.455 178.2 119.938 178.958C119.422 179.699 119.163 180.586 119.163 181.62C119.163 182.585 119.353 183.412 119.731 184.101C120.11 184.79 120.645 185.401 121.334 185.936C122.04 186.452 122.885 186.944 123.867 187.409L124.927 187.9C125.409 188.124 125.805 188.357 126.115 188.599C126.443 188.84 126.685 189.124 126.84 189.451C127.012 189.761 127.098 190.14 127.098 190.588C127.098 191.036 126.995 191.45 126.788 191.829C126.581 192.191 126.279 192.484 125.883 192.708C125.487 192.932 124.996 193.044 124.41 193.044C123.893 193.044 123.411 193 122.963 192.914C122.622 192.835 122.28 192.731 121.938 192.603L121.309 189.244H119.008L118.853 193.147C119.628 193.595 120.515 193.931 121.515 194.155C122.514 194.379 123.488 194.491 124.436 194.491C125.952 194.491 127.21 194.267 128.209 193.819C129.208 193.354 129.958 192.725 130.458 191.933C130.958 191.14 131.207 190.244 131.207 189.244C131.207 188.331 131.043 187.555 130.716 186.918C130.388 186.281 129.889 185.712 129.217 185.212C128.545 184.695 127.692 184.195 126.658 183.713L125.495 183.145C124.996 182.921 124.573 182.679 124.229 182.421C123.884 182.162 123.617 181.869 123.428 181.542C123.238 181.215 123.144 180.827 123.144 180.379C123.144 179.914 123.256 179.509 123.479 179.164C123.721 178.802 124.031 178.526 124.41 178.337C124.806 178.147 125.237 178.053 125.702 178.053C126.316 178.053 126.875 178.168 127.383 178.395L128.003 181.594H130.251L130.458 177.897C129.838 177.484 129.097 177.165 128.235 176.941C127.391 176.717 126.512 176.605 125.599 176.605ZM134.726 177.07V178.415L136.55 178.608C136.556 178.972 136.561 179.338 136.561 179.707C136.578 180.586 136.586 181.482 136.586 182.396V188.701C136.586 189.614 136.578 190.519 136.561 191.415C136.561 191.771 136.555 192.124 136.55 192.475L134.726 192.682V194H143.513V192.682L141.258 192.429C141.254 192.26 141.251 192.091 141.248 191.922C141.245 191.753 141.242 191.584 141.238 191.415C141.221 190.537 141.213 189.692 141.213 188.883V187.486H141.781C143.659 187.486 145.141 187.245 146.227 186.763C147.329 186.263 148.105 185.609 148.553 184.799C149.018 183.989 149.251 183.093 149.251 182.11C149.251 181.094 149.001 180.206 148.501 179.448C148.001 178.69 147.191 178.105 146.071 177.691C144.969 177.278 143.487 177.07 141.626 177.07H134.726ZM152.266 177.07V178.415L154.09 178.608C154.096 178.972 154.101 179.338 154.101 179.707C154.118 180.586 154.126 181.482 154.126 182.396V188.701C154.126 189.614 154.118 190.519 154.101 191.415C154.101 191.771 154.095 192.124 154.09 192.475L152.266 192.682V194H165.783L165.989 189.503H163.948L163.255 192.63H158.803L158.778 191.363C158.761 190.467 158.753 189.563 158.753 188.649V186.014H161.347L161.725 188.004H163.121V182.498H161.725L161.321 184.54H158.753V182.369C158.753 181.456 158.761 180.56 158.778 179.682C158.783 179.446 158.788 179.212 158.792 178.979L158.803 178.467H162.762L163.431 181.517H165.473L165.292 177.07H152.266ZM176.07 177.07L170.856 192.379L168.885 192.682V194H174.209V192.682L172.325 192.367L173.363 189.115H178.318L179.368 192.479L177.491 192.733V194H185.581V192.733L184.081 192.55L178.835 177.07H176.07Z" fill="black"/>
<path fill-rule="evenodd" clip-rule="evenodd" d="M217.638 185.732L217.688 185.488H217.56L217.638 185.732Z" fill="black"/>
<path fill-rule="evenodd" clip-rule="evenodd" d="M237.851 192.416C237.851 192.578 237.85 192.741 237.849 192.904L236.651 192.992V194H237.835H239.099H239.499H240.907H245.275L245.435 190.752H244.107L243.647 192.976H240.9C240.898 192.784 240.894 192.592 240.891 192.4C240.88 191.867 240.875 191.344 240.875 190.832V189.312V188.368V186.752C240.875 186.208 240.88 185.669 240.891 185.136C240.894 184.97 240.897 184.805 240.899 184.64L242.283 184.544V183.52H240.907H237.835H236.651V184.544L237.849 184.632C237.85 184.8 237.851 184.968 237.851 185.136C237.861 185.68 237.867 186.219 237.867 186.752V188.368V189.424V190.864C237.867 191.365 237.861 191.883 237.851 192.416Z" fill="black"/>
<path fill-rule="evenodd" clip-rule="evenodd" d="M246.884 184.544L248.083 184.632C248.084 184.8 248.084 184.968 248.084 185.136C248.095 185.669 248.1 186.208 248.1 186.752V188.368V189.152V190.784C248.1 191.328 248.095 191.867 248.084 192.4C248.084 192.568 248.084 192.736 248.083 192.904L246.884 192.992V194H248.068H249.332H249.732H251.14H255.668L255.78 191.2H254.404L254.041 192.992H251.134C251.132 192.789 251.128 192.586 251.124 192.384C251.114 191.851 251.108 191.312 251.108 190.768V189.152H252.722L252.9 190.304H253.956V186.912H252.9L252.712 188.08H251.108V186.752C251.108 186.208 251.114 185.669 251.124 185.136C251.128 184.938 251.131 184.741 251.134 184.544H253.724L254.084 186.272H255.46L255.348 183.52H251.14H249.732H249.332H248.068H246.884V184.544Z" fill="black"/>
<path fill-rule="evenodd" clip-rule="evenodd" d="M227.755 183.52H226.491H225.323V184.544L226.52 184.633C226.522 184.806 226.523 184.979 226.523 185.152V186.784V188.416V189.104V190.752V192.384C226.523 192.557 226.522 192.73 226.52 192.903L225.323 192.992V194H226.491H227.755H228.331H229.547H230.091C231.104 194 231.947 193.92 232.619 193.76C233.291 193.589 233.824 193.365 234.219 193.088C234.614 192.8 234.896 192.48 235.067 192.128C235.238 191.765 235.323 191.397 235.323 191.024C235.323 190.48 235.179 190.021 234.891 189.648C234.614 189.275 234.171 188.987 233.563 188.784C232.966 188.571 232.198 188.448 231.259 188.416V188.384C232.102 188.32 232.774 188.176 233.275 187.952C233.776 187.728 234.139 187.445 234.363 187.104C234.598 186.763 234.715 186.379 234.715 185.952C234.715 185.472 234.571 185.051 234.283 184.688C234.006 184.325 233.563 184.043 232.955 183.84C232.358 183.627 231.574 183.52 230.603 183.52H229.547H228.331H227.755ZM231.003 184.752C230.758 184.624 230.438 184.56 230.043 184.56H229.526L229.515 185.136V186.768V188.064H229.931C230.347 188.064 230.688 187.995 230.955 187.856C231.232 187.707 231.435 187.499 231.563 187.232C231.702 186.955 231.771 186.624 231.771 186.24C231.771 185.877 231.707 185.573 231.579 185.328C231.451 185.072 231.259 184.88 231.003 184.752ZM229.515 189.024H230.043C230.79 189.024 231.344 189.184 231.707 189.504C232.07 189.824 232.251 190.325 232.251 191.008C232.251 191.648 232.059 192.133 231.675 192.464C231.291 192.795 230.731 192.96 229.995 192.96H229.527L229.515 192.368V190.736V189.072V189.024Z" fill="black"/>
<path fill-rule="evenodd" clip-rule="evenodd" d="M219.344 191.072L219.929 192.902L218.712 193.008V194H220.28H223.384H223.992V193.008L223.01 192.931L219.72 183.52H217.608L214.365 192.877L213.176 192.992V194H213.976H215.112H216.68V192.992L215.473 192.866L216.043 191.072H219.344ZM217.688 185.488L217.638 185.732L217.56 185.488H217.688ZM217.638 185.732L219.017 190.048H216.369L217.448 186.656L217.638 185.732Z" fill="black"/>
</svg>
